# xmcd
#
# Track frame offsets:
# 150
# 12870
# 27203
# 42246
# 59203
# 69646
# 80751
# 97047
# 109059
# 122329
#
# Disc length: 1839 seconds
#
#
# Revision: 0
# Processed by: cddbd v1.5.1PL0 Copyright (c) Steve Scherf et al.
# Submitted via: FreeRIP 2.51 
#
DISCID=85072d0a
DTITLE=Blue Creek - De Jour en Jour
DYEAR=2003
DGENRE=Bluegrass
TTITLE0=De jour en jour
TTITLE1=Viens t'assoire aupres de moi
TTITLE2=Working man Blues
TTITLE3=Perce les nuages
TTITLE4=Old Joe Clark
TTITLE5=Ain't nobody gonna tie me down
TTITLE6=Je t'aimerais toujours
TTITLE7=The game that I can't win
TTITLE8=Foggy Mountain Break down
TTITLE9=J'avais autrefois une amie
EXTD=
EXTT0=
EXTT1=
EXTT2=
EXTT3=
EXTT4=
EXTT5=
EXTT6=
EXTT7=
EXTT8=
EXTT9=
PLAYORDER=
